<mxfile host="app.diagrams.net" agent="Mozilla/5.0 (Windows NT 10.0; Win64; x64) AppleWebKit/537.36 (KHTML, like Gecko) Chrome/130.0.0.0 Safari/537.36" version="24.8.6">
  <diagram name="Page-1" id="JZaFUBtq7wkDwSlXKuTk">
    <mxGraphModel dx="1878" dy="1113" grid="1" gridSize="10" guides="1" tooltips="1" connect="1" arrows="1" fold="1" page="1" pageScale="1" pageWidth="827" pageHeight="1169" math="0" shadow="0">
      <root>
        <mxCell id="0" />
        <mxCell id="1" parent="0" />
        <mxCell id="-SzD1_mk2B3pfbMO4b0y-21" style="edgeStyle=orthogonalEdgeStyle;rounded=0;orthogonalLoop=1;jettySize=auto;html=1;entryX=0.5;entryY=0;entryDx=0;entryDy=0;" edge="1" parent="1" source="-SzD1_mk2B3pfbMO4b0y-1" target="-SzD1_mk2B3pfbMO4b0y-19">
          <mxGeometry relative="1" as="geometry" />
        </mxCell>
        <mxCell id="-SzD1_mk2B3pfbMO4b0y-1" value="Inicio Programa" style="rounded=1;whiteSpace=wrap;html=1;" vertex="1" parent="1">
          <mxGeometry x="230" y="10" width="120" height="60" as="geometry" />
        </mxCell>
        <mxCell id="-SzD1_mk2B3pfbMO4b0y-9" style="edgeStyle=orthogonalEdgeStyle;rounded=0;orthogonalLoop=1;jettySize=auto;html=1;entryX=0.5;entryY=0;entryDx=0;entryDy=0;" edge="1" parent="1" source="-SzD1_mk2B3pfbMO4b0y-2">
          <mxGeometry relative="1" as="geometry">
            <mxPoint x="290" y="370" as="targetPoint" />
          </mxGeometry>
        </mxCell>
        <mxCell id="-SzD1_mk2B3pfbMO4b0y-2" value="Eleccion de&amp;nbsp;&lt;br&gt;Palabra aleatoria" style="rounded=1;whiteSpace=wrap;html=1;" vertex="1" parent="1">
          <mxGeometry x="230" y="260" width="120" height="60" as="geometry" />
        </mxCell>
        <mxCell id="-SzD1_mk2B3pfbMO4b0y-8" style="edgeStyle=orthogonalEdgeStyle;rounded=0;orthogonalLoop=1;jettySize=auto;html=1;entryX=0.75;entryY=0;entryDx=0;entryDy=0;" edge="1" parent="1" source="-SzD1_mk2B3pfbMO4b0y-3">
          <mxGeometry relative="1" as="geometry">
            <mxPoint x="320" y="370" as="targetPoint" />
            <Array as="points">
              <mxPoint x="490" y="340" />
              <mxPoint x="320" y="340" />
            </Array>
          </mxGeometry>
        </mxCell>
        <mxCell id="-SzD1_mk2B3pfbMO4b0y-13" style="edgeStyle=orthogonalEdgeStyle;rounded=0;orthogonalLoop=1;jettySize=auto;html=1;entryX=0.5;entryY=0;entryDx=0;entryDy=0;" edge="1" parent="1" source="-SzD1_mk2B3pfbMO4b0y-3" target="-SzD1_mk2B3pfbMO4b0y-12">
          <mxGeometry relative="1" as="geometry" />
        </mxCell>
        <mxCell id="-SzD1_mk2B3pfbMO4b0y-3" value="Es letra?" style="rhombus;whiteSpace=wrap;html=1;" vertex="1" parent="1">
          <mxGeometry x="450" y="360" width="80" height="80" as="geometry" />
        </mxCell>
        <mxCell id="-SzD1_mk2B3pfbMO4b0y-5" style="edgeStyle=orthogonalEdgeStyle;rounded=0;orthogonalLoop=1;jettySize=auto;html=1;entryX=0;entryY=0.5;entryDx=0;entryDy=0;exitX=1;exitY=0.5;exitDx=0;exitDy=0;" edge="1" parent="1" source="-SzD1_mk2B3pfbMO4b0y-20" target="-SzD1_mk2B3pfbMO4b0y-3">
          <mxGeometry relative="1" as="geometry">
            <mxPoint x="350" y="400" as="sourcePoint" />
          </mxGeometry>
        </mxCell>
        <mxCell id="-SzD1_mk2B3pfbMO4b0y-11" value="NO" style="text;html=1;align=center;verticalAlign=middle;resizable=0;points=[];autosize=1;strokeColor=none;fillColor=none;" vertex="1" parent="1">
          <mxGeometry x="374" y="308" width="40" height="30" as="geometry" />
        </mxCell>
        <mxCell id="-SzD1_mk2B3pfbMO4b0y-25" style="edgeStyle=orthogonalEdgeStyle;rounded=0;orthogonalLoop=1;jettySize=auto;html=1;entryX=1;entryY=0.5;entryDx=0;entryDy=0;" edge="1" parent="1" source="-SzD1_mk2B3pfbMO4b0y-12" target="-SzD1_mk2B3pfbMO4b0y-18">
          <mxGeometry relative="1" as="geometry" />
        </mxCell>
        <mxCell id="-SzD1_mk2B3pfbMO4b0y-12" value="toUpperCase" style="rounded=1;whiteSpace=wrap;html=1;" vertex="1" parent="1">
          <mxGeometry x="430" y="480" width="120" height="60" as="geometry" />
        </mxCell>
        <mxCell id="-SzD1_mk2B3pfbMO4b0y-14" value="Si" style="text;html=1;align=center;verticalAlign=middle;resizable=0;points=[];autosize=1;strokeColor=none;fillColor=none;" vertex="1" parent="1">
          <mxGeometry x="460" y="440" width="30" height="30" as="geometry" />
        </mxCell>
        <mxCell id="-SzD1_mk2B3pfbMO4b0y-28" style="edgeStyle=orthogonalEdgeStyle;rounded=0;orthogonalLoop=1;jettySize=auto;html=1;entryX=0.5;entryY=0;entryDx=0;entryDy=0;" edge="1" parent="1" source="-SzD1_mk2B3pfbMO4b0y-15" target="-SzD1_mk2B3pfbMO4b0y-27">
          <mxGeometry relative="1" as="geometry" />
        </mxCell>
        <mxCell id="-SzD1_mk2B3pfbMO4b0y-31" style="edgeStyle=orthogonalEdgeStyle;rounded=0;orthogonalLoop=1;jettySize=auto;html=1;entryX=1;entryY=0.5;entryDx=0;entryDy=0;" edge="1" parent="1" source="-SzD1_mk2B3pfbMO4b0y-15" target="-SzD1_mk2B3pfbMO4b0y-30">
          <mxGeometry relative="1" as="geometry" />
        </mxCell>
        <mxCell id="-SzD1_mk2B3pfbMO4b0y-15" value="Esta en Palabra" style="rhombus;whiteSpace=wrap;html=1;" vertex="1" parent="1">
          <mxGeometry x="70" y="470" width="80" height="80" as="geometry" />
        </mxCell>
        <mxCell id="-SzD1_mk2B3pfbMO4b0y-26" style="edgeStyle=orthogonalEdgeStyle;rounded=0;orthogonalLoop=1;jettySize=auto;html=1;entryX=1;entryY=0.5;entryDx=0;entryDy=0;" edge="1" parent="1" source="-SzD1_mk2B3pfbMO4b0y-18" target="-SzD1_mk2B3pfbMO4b0y-15">
          <mxGeometry relative="1" as="geometry" />
        </mxCell>
        <mxCell id="-SzD1_mk2B3pfbMO4b0y-18" value="Comprobar si la&amp;nbsp;&lt;br&gt;Variable Letra se&amp;nbsp;&lt;br&gt;encuentra en la Palabra" style="rounded=1;whiteSpace=wrap;html=1;" vertex="1" parent="1">
          <mxGeometry x="215" y="470" width="150" height="80" as="geometry" />
        </mxCell>
        <mxCell id="-SzD1_mk2B3pfbMO4b0y-22" style="edgeStyle=orthogonalEdgeStyle;rounded=0;orthogonalLoop=1;jettySize=auto;html=1;entryX=0.5;entryY=0;entryDx=0;entryDy=0;" edge="1" parent="1" source="-SzD1_mk2B3pfbMO4b0y-19" target="-SzD1_mk2B3pfbMO4b0y-2">
          <mxGeometry relative="1" as="geometry" />
        </mxCell>
        <mxCell id="-SzD1_mk2B3pfbMO4b0y-19" value="Creacion de variables:&lt;br&gt;Palabra&lt;br&gt;palabraVacia&lt;br&gt;Letra&lt;div&gt;Vidas&lt;/div&gt;" style="rounded=1;whiteSpace=wrap;html=1;" vertex="1" parent="1">
          <mxGeometry x="230" y="120" width="120" height="90" as="geometry" />
        </mxCell>
        <mxCell id="-SzD1_mk2B3pfbMO4b0y-20" value="User input Letra" style="shape=parallelogram;perimeter=parallelogramPerimeter;whiteSpace=wrap;html=1;fixedSize=1;" vertex="1" parent="1">
          <mxGeometry x="230" y="370" width="120" height="60" as="geometry" />
        </mxCell>
        <mxCell id="-SzD1_mk2B3pfbMO4b0y-34" style="edgeStyle=orthogonalEdgeStyle;rounded=0;orthogonalLoop=1;jettySize=auto;html=1;entryX=0;entryY=0.5;entryDx=0;entryDy=0;" edge="1" parent="1" source="-SzD1_mk2B3pfbMO4b0y-27" target="-SzD1_mk2B3pfbMO4b0y-33">
          <mxGeometry relative="1" as="geometry">
            <mxPoint x="-190" y="400" as="targetPoint" />
          </mxGeometry>
        </mxCell>
        <mxCell id="-SzD1_mk2B3pfbMO4b0y-27" value="Sustituir todas&amp;nbsp;&lt;br&gt;las iteraciones&lt;br&gt;de Letra en palabraVacias" style="rounded=1;whiteSpace=wrap;html=1;" vertex="1" parent="1">
          <mxGeometry x="50" y="590" width="120" height="80" as="geometry" />
        </mxCell>
        <mxCell id="-SzD1_mk2B3pfbMO4b0y-29" value="Si" style="text;html=1;align=center;verticalAlign=middle;resizable=0;points=[];autosize=1;strokeColor=none;fillColor=none;" vertex="1" parent="1">
          <mxGeometry x="110" y="550" width="30" height="30" as="geometry" />
        </mxCell>
        <mxCell id="-SzD1_mk2B3pfbMO4b0y-42" style="edgeStyle=orthogonalEdgeStyle;rounded=0;orthogonalLoop=1;jettySize=auto;html=1;entryX=1;entryY=0.5;entryDx=0;entryDy=0;" edge="1" parent="1" source="-SzD1_mk2B3pfbMO4b0y-30" target="-SzD1_mk2B3pfbMO4b0y-41">
          <mxGeometry relative="1" as="geometry" />
        </mxCell>
        <mxCell id="-SzD1_mk2B3pfbMO4b0y-30" value="Vidas --" style="rounded=1;whiteSpace=wrap;html=1;" vertex="1" parent="1">
          <mxGeometry x="-110" y="480" width="120" height="60" as="geometry" />
        </mxCell>
        <mxCell id="-SzD1_mk2B3pfbMO4b0y-32" value="No" style="text;html=1;align=center;verticalAlign=middle;resizable=0;points=[];autosize=1;strokeColor=none;fillColor=none;" vertex="1" parent="1">
          <mxGeometry x="20" y="480" width="40" height="30" as="geometry" />
        </mxCell>
        <mxCell id="-SzD1_mk2B3pfbMO4b0y-36" style="edgeStyle=orthogonalEdgeStyle;rounded=0;orthogonalLoop=1;jettySize=auto;html=1;entryX=0;entryY=0.5;entryDx=0;entryDy=0;" edge="1" parent="1" source="-SzD1_mk2B3pfbMO4b0y-33" target="-SzD1_mk2B3pfbMO4b0y-20">
          <mxGeometry relative="1" as="geometry">
            <Array as="points">
              <mxPoint x="90" y="290" />
              <mxPoint x="90" y="400" />
            </Array>
          </mxGeometry>
        </mxCell>
        <mxCell id="-SzD1_mk2B3pfbMO4b0y-40" style="edgeStyle=orthogonalEdgeStyle;rounded=0;orthogonalLoop=1;jettySize=auto;html=1;entryX=0.5;entryY=1;entryDx=0;entryDy=0;" edge="1" parent="1" source="-SzD1_mk2B3pfbMO4b0y-33" target="-SzD1_mk2B3pfbMO4b0y-39">
          <mxGeometry relative="1" as="geometry" />
        </mxCell>
        <mxCell id="-SzD1_mk2B3pfbMO4b0y-33" value="Compruebo&lt;br&gt;Vidas == 0&amp;nbsp;&lt;br&gt;Palabra == palabraVacias" style="rhombus;whiteSpace=wrap;html=1;" vertex="1" parent="1">
          <mxGeometry x="-275" y="236" width="130" height="108" as="geometry" />
        </mxCell>
        <mxCell id="-SzD1_mk2B3pfbMO4b0y-37" value="No" style="text;html=1;align=center;verticalAlign=middle;resizable=0;points=[];autosize=1;strokeColor=none;fillColor=none;" vertex="1" parent="1">
          <mxGeometry y="260" width="40" height="30" as="geometry" />
        </mxCell>
        <mxCell id="-SzD1_mk2B3pfbMO4b0y-39" value="Fin Juego" style="rounded=1;whiteSpace=wrap;html=1;" vertex="1" parent="1">
          <mxGeometry x="-270" y="90" width="120" height="60" as="geometry" />
        </mxCell>
        <mxCell id="-SzD1_mk2B3pfbMO4b0y-43" style="edgeStyle=orthogonalEdgeStyle;rounded=0;orthogonalLoop=1;jettySize=auto;html=1;entryX=0.5;entryY=1;entryDx=0;entryDy=0;" edge="1" parent="1" source="-SzD1_mk2B3pfbMO4b0y-41" target="-SzD1_mk2B3pfbMO4b0y-33">
          <mxGeometry relative="1" as="geometry" />
        </mxCell>
        <mxCell id="-SzD1_mk2B3pfbMO4b0y-41" value="Comprobar dependiendo del numero de vidas restantes la parte del cuerpo que debe dibujarse" style="rounded=1;whiteSpace=wrap;html=1;" vertex="1" parent="1">
          <mxGeometry x="-270" y="455" width="120" height="110" as="geometry" />
        </mxCell>
        <mxCell id="-SzD1_mk2B3pfbMO4b0y-44" value="si" style="text;html=1;align=center;verticalAlign=middle;resizable=0;points=[];autosize=1;strokeColor=none;fillColor=none;" vertex="1" parent="1">
          <mxGeometry x="-210" y="180" width="30" height="30" as="geometry" />
        </mxCell>
      </root>
    </mxGraphModel>
  </diagram>
</mxfile>
